#N canvas 464 216 746 423 10;
#X obj 91 29 osc~ 440;
#X obj 92 309 dac~;
#X obj 155 279 metro 100;
#X obj 155 250 tgl 15 0 empty empty empty 17 7 0 10 -262144 -1 -1 1
1;
#N canvas 0 0 450 300 (subpatch) 0;
#X array oscWave 100 float 4;
#X coords 0 1 99 -1 200 140 1;
#X restore 403 27 graph;
#X obj 134 309 tabwrite~ oscWave;
#X obj 96 132 lop~;
#X obj 109 91 mtof;
#X obj 114 62 hsl 128 15 0 127 0 0 empty empty empty -2 -8 0 10 -262144
-1 -1 4400 1;
#X connect 0 0 6 0;
#X connect 2 0 5 0;
#X connect 3 0 2 0;
#X connect 6 0 1 0;
#X connect 6 0 1 1;
#X connect 6 0 5 0;
#X connect 7 0 6 1;
#X connect 8 0 7 0;
